<svg xmlns="http://www.w3.org/2000/svg" width="48.361" height="62.988" viewBox="0 0 48.361 62.988"><defs><style>.a{fill:#26a69a;}</style></defs><g transform="translate(-59.381)"><circle class="a" cx="4.47" cy="4.47" r="4.47" transform="translate(86.555 33.007)"/><circle class="a" cx="4.47" cy="4.47" r="4.47" transform="translate(84.232 14.361) rotate(-13.48)"/><path class="a" d="M164.86,278.074s1.284-.01,1.676-.017c1.511-.026,3.035-1.353,3.035-4.257,0-3.975-2.376-4.283-3.1-4.283h-1.622Z" transform="translate(-92.475 -236.323)"/><path class="a" d="M59.381,0V52.187l24.18,10.8,24.18-10.8V0ZM91.025,29.312a8.165,8.165,0,1,1-8.165,8.165A8.174,8.174,0,0,1,91.025,29.312Zm-9.55-11.655a8.165,8.165,0,1,1,8.165,8.165A8.174,8.174,0,0,1,81.475,17.657Zm-11.417-4.47V9.492H80.73v3.695h-3.5V25.823H73.532V13.187ZM73.992,29.5a6.3,6.3,0,0,1,5.179,2.54,8.991,8.991,0,0,1,1.62,5.438c0,4.54-2.8,7.907-6.665,7.974-.992.017-5.423.011-5.423.011L68.668,29.5Z"/></g></svg>