<svg xmlns="http://www.w3.org/2000/svg" width="30.693" height="39.976" viewBox="0 0 30.693 39.976"><defs><style>.a{fill:#fff;}</style></defs><g transform="translate(-59.381)"><circle class="a" cx="2.837" cy="2.837" r="2.837" transform="translate(76.627 20.948)"/><circle class="a" cx="2.837" cy="2.837" r="2.837" transform="translate(75.153 9.114) rotate(-13.48)"/><path class="a" d="M164.855,274.948s.815-.006,1.064-.011c.959-.017,1.926-.859,1.926-2.7,0-2.522-1.508-2.719-1.97-2.719h-1.029Z" transform="translate(-97.22 -248.45)"/><path class="a" d="M59.381,0V33.121l15.346,6.855,15.346-6.855V0ZM79.464,18.6a5.182,5.182,0,1,1-5.182,5.182A5.188,5.188,0,0,1,79.464,18.6Zm-6.061-7.4a5.182,5.182,0,1,1,5.182,5.182A5.188,5.188,0,0,1,73.4,11.206ZM66.157,8.369V6.024H72.93V8.369H70.707v8.019H68.362V8.369Zm2.5,10.353a4,4,0,0,1,3.287,1.612,5.706,5.706,0,0,1,1.028,3.452c0,2.881-1.779,5.018-4.23,5.061-.629.011-3.442.007-3.442.007l-.022-10.131Z"/></g></svg>